<svg width="11" height="16" viewBox="0 0 11 16" fill="none" xmlns="http://www.w3.org/2000/svg">
<path d="M5.5 0C2.4629 0 0 2.20408 0 4.92203C0 9.84406 5.5 15.7505 5.5 15.7505C5.5 15.7505 11 9.84406 11 4.92203C11 2.20408 8.5371 0 5.5 0ZM5.5 7.93726C3.6399 7.93726 2.1307 6.58764 2.1307 4.92203C2.1307 3.25641 3.6388 1.90679 5.5 1.90679C7.3612 1.90679 8.8693 3.25641 8.8693 4.92203C8.8693 6.58764 7.3612 7.93726 5.5 7.93726ZM3.3693 4.92203C3.3693 3.86871 4.323 3.01425 5.5011 3.01425C6.6792 3.01425 7.6329 3.86773 7.6329 4.92203C7.6329 5.97534 6.6792 6.82981 5.5011 6.82981C4.323 6.82981 3.3693 5.97633 3.3693 4.92203Z" fill="white"/>
</svg>
