<svg width="20" height="19" viewBox="0 0 20 19" fill="none" xmlns="http://www.w3.org/2000/svg">
<path d="M10.0004 0.198347C15.5289 0.198347 20.0004 4.40186 20.0004 9.59917C20.0004 14.7965 15.5289 19 10.0004 19C4.4718 19 0.000366211 14.7965 0.000366211 9.59917C0.000366211 4.40186 4.4718 0.198347 10.0004 0.198347ZM8.17179 14.5548C12.6004 14.5548 15.0289 11.1033 15.0289 8.10847V7.81302C15.5004 7.4907 15.9147 7.08781 16.2289 6.6312C15.8004 6.80579 15.3289 6.92665 14.8432 6.9938C15.3432 6.71178 15.7289 6.2686 15.9004 5.74484C15.4289 6 14.9147 6.18802 14.3718 6.29545C13.9289 5.85227 13.3004 5.58368 12.6147 5.58368C11.2861 5.58368 10.2004 6.60434 10.2004 7.85331C10.2004 8.02789 10.2147 8.20248 10.2718 8.36364C8.2718 8.26963 6.48608 7.36984 5.30037 6C5.10037 6.33574 4.97179 6.72521 4.97179 7.14153C4.97179 7.92045 5.40037 8.6188 6.04322 9.02169C5.64322 9.02169 5.27179 8.91426 4.95751 8.73967V8.76653C4.95751 9.86777 5.78608 10.781 6.88608 10.9959C6.68608 11.0496 6.4718 11.0764 6.25751 11.0764C6.10037 11.0764 5.95751 11.063 5.80037 11.0362C6.10037 11.936 7.00037 12.594 8.04322 12.6074C7.21465 13.2118 6.17179 13.5744 5.04322 13.5744C4.84322 13.5744 4.65751 13.5744 4.4718 13.5475C5.52894 14.1921 6.80037 14.5682 8.15751 14.5682" fill="white"/>
</svg>
