<svg width="16" height="19" viewBox="0 0 16 19" fill="none" xmlns="http://www.w3.org/2000/svg">
<path d="M11.7333 11.4148C10.6667 12.6005 10.6667 13.7862 9.6 13.7862C8.53333 13.7862 7.46667 12.6005 6.4 11.4148C5.33333 10.229 4.26667 9.0433 4.26667 7.85756C4.26667 6.67183 5.33333 6.67183 6.4 5.4861C7.46667 4.30036 4.26667 0.743164 3.2 0.743164C2.13333 0.743164 0 4.30036 0 4.30036C0 6.67183 2.192 11.48 4.26667 13.7862C6.34133 16.0925 10.6667 18.5292 12.8 18.5292C12.8 18.5292 16 16.1577 16 14.972C16 13.7862 12.8 10.229 11.7333 11.4148Z" fill="white"/>
</svg>
