<svg width="11" height="21" viewBox="0 0 11 21" fill="none" xmlns="http://www.w3.org/2000/svg">
<path d="M5.5 0.202637C2.4629 0.202637 0 3.03543 0 6.52865C0 12.8547 5.5 20.4459 5.5 20.4459C5.5 20.4459 11 12.8547 11 6.52865C11 3.03543 8.5371 0.202637 5.5 0.202637ZM5.5 10.404C3.6399 10.404 2.1307 8.66937 2.1307 6.52865C2.1307 4.38793 3.6388 2.65333 5.5 2.65333C7.3612 2.65333 8.8693 4.38793 8.8693 6.52865C8.8693 8.66937 7.3612 10.404 5.5 10.404ZM3.3693 6.52865C3.3693 5.17488 4.323 4.07669 5.5011 4.07669C6.6792 4.07669 7.6329 5.17362 7.6329 6.52865C7.6329 7.88242 6.6792 8.98061 5.5011 8.98061C4.323 8.98061 3.3693 7.88368 3.3693 6.52865Z" fill="white"/>
</svg>
