<svg width="24" height="17" viewBox="0 0 24 17" fill="none" xmlns="http://www.w3.org/2000/svg">
<path d="M19.9995 0.327148H4.0005C1.8 0.327148 0 1.508 0 2.9516V13.4474C0 14.892 1.8 16.0719 4.0005 16.0719H19.9995C22.2 16.0719 24 14.892 24 13.4474V2.9516C24 1.508 22.2 0.327148 19.9995 0.327148ZM19.9995 2.29524C20.187 2.29524 20.364 2.33067 20.5155 2.39266L11.9985 7.01178L3.483 2.39266C3.6345 2.33067 3.8115 2.29524 3.999 2.29524H19.998H19.9995ZM4.0005 14.1038C3.9555 14.1038 3.9105 14.1018 3.867 14.0979L9.1545 9.28591L8.469 8.8362L3 12.424V3.02737L12 10.1676L21 3.02737V12.424L15.531 8.8362L14.8455 9.28591L20.133 14.0979C20.0895 14.1018 20.0445 14.1038 20.001 14.1038H4.0005Z" fill="white"/>
</svg>
