<svg width="20" height="19" viewBox="0 0 20 19" fill="none" xmlns="http://www.w3.org/2000/svg">
<path d="M11.0282 0.199504C11.7579 0.196871 12.4876 0.203766 13.2171 0.220185L13.4111 0.226765C13.6351 0.234286 13.8561 0.243686 14.1231 0.254967C15.1871 0.301969 15.913 0.459898 16.55 0.69209C17.21 0.930863 17.766 1.25424 18.322 1.77691C18.8303 2.24656 19.2237 2.81467 19.4749 3.44174C19.7219 4.04055 19.8899 4.72397 19.9399 5.72418C19.9519 5.97423 19.9619 6.18293 19.9699 6.3935L19.9759 6.57587C19.9937 7.26135 20.0013 7.94702 19.9989 8.6327L19.9999 9.33398V10.5654C20.0024 11.2514 19.9947 11.9374 19.9769 12.6232L19.9709 12.8056C19.9629 13.0162 19.9529 13.2239 19.9409 13.4749C19.8909 14.4751 19.7209 15.1576 19.4749 15.7564C19.2246 16.3841 18.831 16.9527 18.322 17.4222C17.8219 17.9 17.2173 18.2699 16.55 18.5061C15.913 18.7382 15.1871 18.8962 14.1231 18.9432C13.8561 18.9545 13.6351 18.9639 13.4111 18.9714L13.2171 18.977C12.4876 18.9937 11.7579 19.0009 11.0282 18.9986L10.2822 18.9996H8.97327C8.24356 19.0019 7.51385 18.9947 6.78435 18.978L6.59035 18.9723C6.35297 18.9642 6.11564 18.9548 5.87838 18.9441C4.81441 18.8971 4.08844 18.7373 3.45046 18.5061C2.78317 18.2704 2.17874 17.9005 1.67952 17.4222C1.17058 16.9524 0.776775 16.3839 0.525559 15.7564C0.278568 15.1576 0.110573 14.4751 0.0605749 13.4749C0.0494382 13.2518 0.0394384 13.0287 0.0305759 12.8056L0.0255762 12.6232C0.00714044 11.9374 -0.00119351 11.2514 0.000576981 10.5654V8.6327C-0.00221389 7.94703 0.00511997 7.26135 0.0225763 6.57587L0.029576 6.3935C0.0375758 6.18293 0.0475754 5.97423 0.059575 5.72418C0.109573 4.72303 0.277567 4.04149 0.524559 3.44174C0.775923 2.81437 1.1705 2.24641 1.68052 1.77785C2.1794 1.29913 2.78344 0.928581 3.45046 0.69209C4.08844 0.459898 4.81341 0.301969 5.87838 0.254967L6.59035 0.226765L6.78435 0.222065C7.5135 0.204743 8.24288 0.196908 8.97227 0.198564L11.0282 0.199504ZM10.0002 4.89976C9.33777 4.89095 8.68004 5.00601 8.06528 5.23824C7.45052 5.47047 6.89099 5.81525 6.4192 6.25254C5.94742 6.68983 5.57279 7.21091 5.31708 7.78549C5.06138 8.36007 4.9297 8.9767 4.9297 9.59954C4.9297 10.2224 5.06138 10.839 5.31708 11.4136C5.57279 11.9882 5.94742 12.5093 6.4192 12.9465C6.89099 13.3838 7.45052 13.7286 8.06528 13.9608C8.68004 14.1931 9.33777 14.3081 10.0002 14.2993C11.3263 14.2993 12.598 13.8041 13.5357 12.9227C14.4733 12.0412 15.0001 10.8457 15.0001 9.59907C15.0001 8.35249 14.4733 7.15696 13.5357 6.27549C12.598 5.39402 11.3263 4.89976 10.0002 4.89976ZM10.0002 6.77986C10.3987 6.77296 10.7947 6.84077 11.165 6.97934C11.5353 7.11792 11.8725 7.32447 12.1569 7.58693C12.4414 7.8494 12.6673 8.16252 12.8216 8.50799C12.9758 8.85347 13.0553 9.22438 13.0554 9.59906C13.0555 9.97374 12.9761 10.3447 12.822 10.6902C12.6678 11.0357 12.442 11.3489 12.1577 11.6115C11.8733 11.874 11.5362 12.0807 11.1659 12.2194C10.7957 12.3581 10.3997 12.426 10.0012 12.4192C9.20561 12.4192 8.44258 12.1221 7.87999 11.5932C7.3174 11.0643 7.00134 10.347 7.00134 9.59907C7.00134 8.85112 7.3174 8.1338 7.87999 7.60492C8.44258 7.07604 9.20561 6.77892 10.0012 6.77892L10.0002 6.77986ZM15.2501 3.48968C14.9275 3.50182 14.6224 3.63083 14.3987 3.84969C14.175 4.06856 14.0501 4.36029 14.0501 4.6638C14.0501 4.96731 14.175 5.25905 14.3987 5.47792C14.6224 5.69678 14.9275 5.82579 15.2501 5.83793C15.5816 5.83793 15.8995 5.71413 16.1339 5.49376C16.3683 5.27339 16.5 4.97451 16.5 4.66286C16.5 4.35122 16.3683 4.05234 16.1339 3.83197C15.8995 3.6116 15.5816 3.4878 15.2501 3.4878V3.48968Z" fill="white"/>
</svg>
