<svg width="42" height="39" viewBox="0 0 42 39" fill="none" xmlns="http://www.w3.org/2000/svg">
<path d="M21 0C32.61 0 42 8.71929 42 19.5C42 30.2807 32.61 39 21 39C9.39 39 0 30.2807 0 19.5C0 8.71929 9.39 0 21 0ZM17.16 29.7793C26.46 29.7793 31.56 22.62 31.56 16.4079V15.795C32.55 15.1264 33.42 14.2907 34.08 13.3436C33.18 13.7057 32.19 13.9564 31.17 14.0957C32.22 13.5107 33.03 12.5914 33.39 11.505C32.4 12.0343 31.32 12.4243 30.18 12.6471C29.25 11.7279 27.93 11.1707 26.49 11.1707C23.7 11.1707 21.42 13.2879 21.42 15.8786C21.42 16.2407 21.45 16.6029 21.57 16.9371C17.37 16.7421 13.62 14.8757 11.13 12.0343C10.71 12.7307 10.44 13.5386 10.44 14.4021C10.44 16.0179 11.34 17.4664 12.69 18.3021C11.85 18.3021 11.07 18.0793 10.41 17.7171V17.7729C10.41 20.0571 12.15 21.9514 14.46 22.3971C14.04 22.5086 13.59 22.5643 13.14 22.5643C12.81 22.5643 12.51 22.5364 12.18 22.4807C12.81 24.3471 14.7 25.7121 16.89 25.74C15.15 26.9936 12.96 27.7457 10.59 27.7457C10.17 27.7457 9.78 27.7457 9.39 27.69C11.61 29.0271 14.28 29.8071 17.13 29.8071" fill="white"/>
</svg>
