<svg width="42" height="39" viewBox="0 0 42 39" fill="none" xmlns="http://www.w3.org/2000/svg">
<path d="M23.1588 0.00239919C24.6912 -0.00306106 26.2236 0.01124 27.7555 0.0452979L28.1629 0.0589474C28.6332 0.0745468 29.0973 0.0940461 29.658 0.117445C31.8923 0.214942 33.4168 0.542531 34.7544 1.02416C36.1404 1.51945 37.3079 2.19022 38.4754 3.27439C39.543 4.24859 40.3692 5.42701 40.8966 6.72772C41.4153 7.96983 41.7681 9.38743 41.8731 11.4622C41.8983 11.9808 41.9193 12.4137 41.9361 12.8505L41.9487 13.2288C41.986 14.6507 42.0021 16.073 41.997 17.4953L41.9991 18.9499V21.5043C42.0042 22.9273 41.9881 24.3502 41.9508 25.7727L41.9382 26.151C41.9214 26.5878 41.9004 27.0187 41.8752 27.5394C41.7702 29.6141 41.4132 31.0297 40.8966 32.2719C40.3709 33.5739 39.5445 34.7533 38.4754 35.7271C37.4254 36.7183 36.1557 37.4855 34.7544 37.9754C33.4168 38.457 31.8923 38.7846 29.658 38.8821C29.0973 38.9055 28.6332 38.925 28.1629 38.9406L27.7555 38.9523C26.2236 38.987 24.6912 39.0019 23.1588 38.9972L21.5923 38.9991H18.8435C17.3112 39.0039 15.7788 38.989 14.2469 38.9543L13.8395 38.9426C13.341 38.9258 12.8426 38.9063 12.3444 38.8841C10.1101 38.7866 8.58557 38.4551 7.24584 37.9754C5.84455 37.4866 4.57528 36.7193 3.52693 35.7271C2.45818 34.7527 1.6312 33.5735 1.10366 32.2719C0.584982 31.0297 0.2322 29.6141 0.127205 27.5394C0.103818 27.0767 0.0828193 26.6139 0.0642084 26.151L0.0537091 25.7727C0.0149947 24.3502 -0.00250632 22.9273 0.00121164 21.5043V17.4953C-0.00464909 16.073 0.0107518 14.6507 0.0474094 13.2288L0.0621086 12.8505C0.0789078 12.4137 0.0999066 11.9808 0.125105 11.4622C0.2301 9.38548 0.582882 7.97178 1.10156 6.72772C1.62941 5.42637 2.45801 4.24827 3.52903 3.27634C4.57666 2.28334 5.84513 1.51471 7.24584 1.02416C8.58557 0.542531 10.108 0.214942 12.3444 0.117445L13.8395 0.0589474L14.2469 0.0491979C15.7781 0.0132661 17.3098 -0.00298506 18.8414 0.000449397L23.1588 0.00239919ZM21.0001 9.75207C19.609 9.7338 18.2278 9.97246 16.9368 10.4542C15.6458 10.9359 14.4708 11.6511 13.4801 12.5581C12.4894 13.4652 11.7027 14.5461 11.1657 15.7379C10.6287 16.9297 10.3522 18.2088 10.3522 19.5008C10.3522 20.7927 10.6287 22.0718 11.1657 23.2636C11.7027 24.4555 12.4894 25.5363 13.4801 26.4434C14.4708 27.3505 15.6458 28.0656 16.9368 28.5473C18.2278 29.0291 19.609 29.2677 21.0001 29.2495C23.7848 29.2495 26.4553 28.2223 28.4244 26.3938C30.3934 24.5654 31.4996 22.0856 31.4996 19.4998C31.4996 16.914 30.3934 14.4341 28.4244 12.6057C26.4553 10.7773 23.7848 9.75207 21.0001 9.75207ZM21.0001 13.6519C21.837 13.6376 22.6685 13.7783 23.4461 14.0657C24.2237 14.3532 24.9318 14.7816 25.5291 15.326C26.1264 15.8705 26.6009 16.52 26.9249 17.2366C27.2488 17.9532 27.4157 18.7226 27.4159 19.4998C27.416 20.277 27.2494 21.0464 26.9257 21.7631C26.602 22.4798 26.1277 23.1295 25.5306 23.6741C24.9335 24.2187 24.2255 24.6474 23.448 24.935C22.6705 25.2227 21.8391 25.3636 21.0022 25.3496C19.3315 25.3496 17.7291 24.7333 16.5477 23.6362C15.3663 22.5392 14.7026 21.0513 14.7026 19.4998C14.7026 17.9483 15.3663 16.4604 16.5477 15.3634C17.7291 14.2663 19.3315 13.65 21.0022 13.65L21.0001 13.6519ZM32.0246 6.82717C31.3471 6.85234 30.7065 7.11995 30.2367 7.57394C29.767 8.02792 29.5047 8.63307 29.5047 9.26263C29.5047 9.8922 29.767 10.4973 30.2367 10.9513C30.7065 11.4053 31.3471 11.6729 32.0246 11.6981C32.7207 11.6981 33.3884 11.4413 33.8806 10.9842C34.3729 10.5271 34.6494 9.90713 34.6494 9.26068C34.6494 8.61424 34.3729 7.99427 33.8806 7.53717C33.3884 7.08007 32.7207 6.82327 32.0246 6.82327V6.82717Z" fill="white"/>
</svg>
